<svg xmlns="http://www.w3.org/2000/svg" viewBox="0 0 352 64">
  <!-- History Museum (32x32) -->
  <g transform="translate(0,0)">
    <!-- Base structure -->
    <rect x="4" y="8" width="24" height="24" fill="#d4a373"/>
    <!-- Columns -->
    <rect x="4" y="8" width="4" height="24" fill="#e9edc9"/>
    <rect x="12" y="8" width="4" height="24" fill="#e9edc9"/>
    <rect x="20" y="8" width="4" height="24" fill="#e9edc9"/>
    <!-- Roof -->
    <path d="M2 8 L16 2 L30 8 Z" fill="#bc6c25"/>
    <!-- Steps -->
    <rect x="8" y="28" width="16" height="4" fill="#e9edc9"/>
  </g>

  <!-- Computer Lab (32x32) -->
  <g transform="translate(32,0)">
    <!-- Main building -->
    <rect x="4" y="8" width="24" height="20" fill="#4a4e69"/>
    <!-- Windows -->
    <rect x="6" y="12" width="4" height="4" fill="#90e0ef"/>
    <rect x="14" y="12" width="4" height="4" fill="#90e0ef"/>
    <rect x="22" y="12" width="4" height="4" fill="#90e0ef"/>
    <rect x="6" y="20" width="4" height="4" fill="#90e0ef"/>
    <rect x="14" y="20" width="4" height="4" fill="#90e0ef"/>
    <rect x="22" y="20" width="4" height="4" fill="#90e0ef"/>
    <!-- Antenna -->
    <line x1="16" y1="2" x2="16" y2="8" stroke="#9b2226" stroke-width="2"/>
    <circle cx="16" cy="2" r="1" fill="#9b2226"/>
  </g>

  <!-- Library (32x32) -->
  <g transform="translate(64,0)">
    <!-- Base -->
    <rect x="4" y="12" width="24" height="20" fill="#606c38"/>
    <!-- Books shape on top -->
    <path d="M4 12 L28 12 L28 8 L24 6 L20 8 L16 6 L12 8 L8 6 L4 8 Z" fill="#283618"/>
    <!-- Windows -->
    <rect x="8" y="16" width="4" height="8" fill="#fefae0"/>
    <rect x="20" y="16" width="4" height="8" fill="#fefae0"/>
    <!-- Door -->
    <rect x="14" y="24" width="4" height="8" fill="#dda15e"/>
  </g>

  <!-- Art Museum (32x32) -->
  <g transform="translate(96,0)">
    <!-- Modern structure -->
    <path d="M4 28 L28 28 L24 8 L8 8 Z" fill="#f4a261"/>
    <!-- Glass panels -->
    <rect x="10" y="12" width="12" height="12" fill="#90e0ef"/>
    <!-- Sculpture suggestion -->
    <circle cx="16" cy="4" r="2" fill="#2a9d8f"/>
  </g>

  <!-- Sports Field (32x32) -->
  <g transform="translate(128,0)">
    <!-- Field -->
    <rect x="4" y="8" width="24" height="20" fill="#95d5b2"/>
    <!-- Track -->
    <rect x="2" y="12" width="28" height="12" fill="#d8f3dc" fill-opacity="0.5"/>
    <!-- Goals/Posts -->
    <rect x="4" y="16" width="2" height="4" fill="#081c15"/>
    <rect x="26" y="16" width="2" height="4" fill="#081c15"/>
  </g>

  <!-- Memory Theater (32x32) -->
  <g transform="translate(160,0)">
    <!-- Main amphitheater shape, slightly rotated -->
    <path d="M4 24 A20 20 0 0 1 28 24" fill="none" stroke="#7209b7" stroke-width="4"/>
    <!-- Wider stage platform -->
    <rect x="8" y="24" width="16" height="4" fill="#b5179e"/>
    <!-- Seating tiers, each wider than the last -->
    <path d="M5 22 A18 18 0 0 1 27 22" fill="none" stroke="#9d4edd" stroke-width="2"/>
    <path d="M6 19 A16 16 0 0 1 26 19" fill="none" stroke="#9d4edd" stroke-width="2"/>
    <path d="M7 16 A14 14 0 0 1 25 16" fill="none" stroke="#9d4edd" stroke-width="2"/>
    <path d="M8 13 A12 12 0 0 1 24 13" fill="none" stroke="#9d4edd" stroke-width="2"/>
    <!-- End caps for the seating -->
    <rect x="4" y="22" width="2" height="2" fill="#9d4edd"/>
    <rect x="26" y="22" width="2" height="2" fill="#9d4edd"/>
    <!-- Small decorative elements at the stage corners -->
    <circle cx="8" cy="24" r="1" fill="#b5179e"/>
    <circle cx="24" cy="24" r="1" fill="#b5179e"/>
  </g>

  <!-- Festival Grounds (32x32) -->
  <g transform="translate(192,0)">
    <!-- Platform base -->
    <rect x="8" y="20" width="16" height="4" fill="#774936"/>
    <!-- Support posts -->
    <rect x="8" y="12" width="2" height="8" fill="#774936"/>
    <rect x="22" y="12" width="2" height="8" fill="#774936"/>
    <!-- Octagonal/circular roof -->
    <path d="M6 12 L26 12 L24 8 L8 8 Z" fill="#bc6c25"/>
    <!-- Roof peak -->
    <path d="M8 8 L16 4 L24 8" fill="#bc6c25"/>
    <!-- Decorative railings -->
    <path d="M10 18 L22 18" stroke="#8B4513" stroke-width="1"/>
    <path d="M10 16 L22 16" stroke="#8B4513" stroke-width="1"/>
  </g>

  <!-- Gas Works (32x32) -->
  <g transform="translate(224,0)">
    <!-- Main structure -->
    <rect x="8" y="12" width="16" height="16" fill="#6c757d"/>
    <!-- Chimney -->
    <rect x="12" y="4" width="4" height="8" fill="#495057"/>
    <rect x="20" y="8" width="4" height="4" fill="#495057"/>
    <!-- Pipes -->
    <path d="M4 24 C 4 20, 8 20, 8 24" fill="none" stroke="#495057" stroke-width="2"/>
    <path d="M28 24 C 28 20, 24 20, 24 24" fill="none" stroke="#495057" stroke-width="2"/>
  </g>

  <!-- Sleeping Snorlax (32x32) -->
  <g transform="translate(256,0)">
    <!-- Main body -->
    <path d="M8 8 L24 8 L26 10 L26 22 L24 24 L8 24 L6 22 L6 10 Z" fill="#95b3d7"/>
    <!-- Darker belly -->
    <path d="M10 12 L22 12 L22 20 L10 20 Z" fill="#f2f2f2"/>
    <!-- Face -->
    <path d="M10 14 L14 14 L14 16 L10 16 Z" fill="#000000" opacity="0.5"/> <!-- Left eye (closed) -->
    <path d="M18 14 L22 14 L22 16 L18 16 Z" fill="#000000" opacity="0.5"/> <!-- Right eye (closed) -->
    <path d="M14 18 L18 18 L18 20 L14 20 Z" fill="#000000"/> <!-- Mouth -->
    <!-- Ears -->
    <path d="M8 8 L6 6 L8 4 L10 6 Z" fill="#95b3d7"/> <!-- Left ear -->
    <path d="M24 8 L26 6 L24 4 L22 6 Z" fill="#95b3d7"/> <!-- Right ear -->
    <!-- Bubble -->
    <circle cx="24" cy="6" r="2" fill="#ffffff" opacity="0.8"/>
    <circle cx="26" cy="4" r="1" fill="#ffffff" opacity="0.6"/>
  </g>

  <!-- Central Plaza (32x32) -->
  <g transform="translate(288,0)">
    <!-- Base plaza circle -->
    <circle cx="16" cy="16" r="12" fill="#d4d4d4"/>
    <!-- Fountain base -->
    <circle cx="16" cy="16" r="8" fill="#94a3b8"/>
    <!-- Water -->
    <circle cx="16" cy="16" r="6" fill="#60a5fa"/>
    <!-- Fountain center -->
    <circle cx="16" cy="16" r="2" fill="#94a3b8"/>
    <!-- Water jets -->
    <path d="M16 10 L18 8 L16 6" fill="none" stroke="#60a5fa" stroke-width="1"/>
    <path d="M20 14 L22 12 L24 13" fill="none" stroke="#60a5fa" stroke-width="1"/>
    <path d="M12 14 L10 12 L8 13" fill="none" stroke="#60a5fa" stroke-width="1"/>
    <!-- Decorative tiles -->
    <path d="M4 16 L6 16 M16 4 L16 6 M26 16 L28 16 M16 26 L16 28"
          stroke="#94a3b8" stroke-width="2"/>
    <!-- Corner decorations -->
    <circle cx="7" cy="7" r="1" fill="#94a3b8"/>
    <circle cx="25" cy="7" r="1" fill="#94a3b8"/>
    <circle cx="7" cy="25" r="1" fill="#94a3b8"/>
    <circle cx="25" cy="25" r="1" fill="#94a3b8"/>
  </g>

  <!-- Seaplane Dock (32x32) -->
  <g transform="translate(320,0)">
    <!-- Water -->
    <rect x="0" y="16" width="32" height="16" fill="#60a5fa"/>
    <!-- Dock structure -->
    <path d="M4 16 L28 16 L28 20 L4 20 Z" fill="#92400e"/>
    <!-- Dock posts -->
    <rect x="6" y="20" width="2" height="8" fill="#92400e"/>
    <rect x="24" y="20" width="2" height="8" fill="#92400e"/>
    <!-- Seaplane -->
    <path d="M8 8 L24 8 L26 10 L26 14 L24 16 L8 16 L6 14 L6 10 Z" fill="#cbd5e1"/> <!-- Main body -->
    <path d="M22 10 L28 12 L28 13 L22 11 Z" fill="#cbd5e1"/> <!-- Right wing -->
    <path d="M10 10 L4 12 L4 13 L10 11 Z" fill="#cbd5e1"/> <!-- Left wing -->
    <!-- Floats -->
    <path d="M8 14 L12 14 L12 18 L8 18 Z" fill="#94a3b8"/>
    <path d="M20 14 L24 14 L24 18 L20 18 Z" fill="#94a3b8"/>
    <!-- Water ripples -->
    <path d="M2 24 Q 8 22 14 24 Q 20 26 26 24" fill="none" stroke="#93c5fd" stroke-width="1"/>
    <path d="M4 28 Q 10 26 16 28 Q 22 30 28 28" fill="none" stroke="#93c5fd" stroke-width="1"/>
  </g>
</svg>
